<svg width="1085" height="349" viewBox="0 0 1085 349" fill="none" xmlns="http://www.w3.org/2000/svg">
<path d="M56.2916 162C60.1406 155.333 69.7632 155.333 73.6122 162L121.244 244.5C125.093 251.167 120.281 259.5 112.583 259.5H17.3205C9.62251 259.5 4.81125 251.167 8.66025 244.5L56.2916 162Z" fill="#1FFFA9"/>
<path d="M74.0881 86.25C70.2391 79.5833 75.0504 71.25 82.7484 71.25L178.011 71.25C185.709 71.25 190.52 79.5833 186.671 86.25L139.04 168.75C135.191 175.417 125.569 175.417 121.72 168.75L74.0881 86.25Z" fill="white"/>
<path d="M237.344 261.304C231.541 261.304 227.104 259.427 224.032 255.672C221.131 251.747 220.192 246.285 221.216 239.288L244.512 93.112C245.536 87.48 247.584 83.2987 250.656 80.568C253.899 77.6667 257.909 76.216 262.688 76.216C267.808 76.216 271.648 77.24 274.208 79.288C276.939 81.1653 279.669 84.3227 282.4 88.76L352.8 206.52H345.888L363.552 94.648C364.576 88.3333 366.795 83.7253 370.208 80.824C373.792 77.752 378.656 76.216 384.8 76.216C390.603 76.216 394.784 78.1787 397.344 82.104C400.075 85.8587 400.928 91.1493 399.904 97.976L376.864 244.152C376.011 249.784 374.133 254.051 371.232 256.952C368.331 259.853 364.491 261.304 359.712 261.304C354.592 261.304 350.496 260.28 347.424 258.232C344.352 256.184 341.451 252.941 338.72 248.504L268.32 131H275.232L257.568 242.872C256.715 249.016 254.667 253.624 251.424 256.696C248.181 259.768 243.488 261.304 237.344 261.304ZM433.428 259C426.089 259 420.799 257.123 417.556 253.368C414.313 249.443 413.204 243.896 414.228 236.728L436.244 97.72C437.268 91.4053 439.657 86.6267 443.412 83.384C447.167 80.1413 452.201 78.52 458.516 78.52H546.58C551.871 78.52 555.881 79.6293 558.612 81.848C561.513 83.896 562.964 86.968 562.964 91.064C562.964 96.8667 561.257 101.389 557.844 104.632C554.601 107.875 550.164 109.496 544.532 109.496H472.34L465.684 151.736H529.428C534.719 151.736 538.729 152.845 541.46 155.064C544.191 157.283 545.556 160.355 545.556 164.28C545.556 170.083 543.849 174.691 540.436 178.104C537.193 181.347 532.841 182.968 527.38 182.968H460.82L453.652 228.024H522.772C528.063 228.024 532.073 229.133 534.804 231.352C537.705 233.4 539.156 236.472 539.156 240.568C539.156 246.371 537.449 250.893 534.036 254.136C530.793 257.379 526.356 259 520.724 259H433.428ZM577.438 261.304C572.318 261.304 568.222 259.768 565.15 256.696C562.249 253.624 560.798 249.955 560.798 245.688C560.798 241.251 562.59 236.899 566.174 232.632L631.71 158.648V176.056L588.702 104.12C585.971 99.3413 584.862 94.904 585.374 90.808C586.057 86.5413 588.019 83.0427 591.262 80.312C594.505 77.5813 598.686 76.216 603.806 76.216C608.585 76.216 612.339 77.3253 615.07 79.544C617.801 81.592 620.787 85.5173 624.03 91.32L656.03 147.384H646.558L695.966 88.76C699.891 84.152 703.39 80.9093 706.462 79.032C709.705 77.1547 713.545 76.216 717.982 76.216C723.273 76.216 727.454 77.752 730.526 80.824C733.598 83.7253 735.219 87.3093 735.39 91.576C735.561 95.8427 733.854 100.109 730.27 104.376L666.014 176.568V158.392L710.814 233.4C713.545 237.837 714.569 242.189 713.886 246.456C713.203 250.723 711.241 254.307 707.998 257.208C704.755 259.939 700.489 261.304 695.198 261.304C690.59 261.304 686.835 260.28 683.934 258.232C681.203 256.013 678.217 252.088 674.974 246.456L640.926 187.576H651.166L599.71 248.76C595.785 253.368 592.201 256.611 588.958 258.488C585.886 260.365 582.046 261.304 577.438 261.304ZM818.522 261.816C806.917 261.816 796.421 260.109 787.034 256.696C777.647 253.283 769.797 248.163 763.482 241.336C757.167 234.509 752.73 225.891 750.17 215.48C747.61 205.069 747.439 192.867 749.658 178.872L763.226 94.904C764.079 88.5893 766.298 83.896 769.882 80.824C773.637 77.752 778.586 76.216 784.73 76.216C791.386 76.216 796.25 78.1787 799.322 82.104C802.394 85.8587 803.333 91.2347 802.138 98.232L789.082 181.432C786.863 196.451 788.399 207.971 793.69 215.992C799.151 224.013 808.453 228.024 821.594 228.024C833.882 228.024 843.695 224.781 851.034 218.296C858.373 211.64 863.151 201.4 865.37 187.576L879.962 94.904C880.986 88.5893 883.29 83.896 886.874 80.824C890.629 77.752 895.578 76.216 901.722 76.216C908.207 76.216 912.901 78.0933 915.802 81.848C918.874 85.6027 919.898 91.064 918.874 98.232L905.05 186.296C902.49 202.509 897.711 216.248 890.714 227.512C883.887 238.776 874.586 247.309 862.81 253.112C851.034 258.915 836.271 261.816 818.522 261.816ZM997.764 261.816C990.767 261.816 983.769 261.304 976.772 260.28C969.775 259.256 962.863 257.72 956.036 255.672C949.38 253.453 943.151 250.808 937.348 247.736C933.423 245.517 930.692 242.787 929.156 239.544C927.791 236.131 927.364 232.717 927.876 229.304C928.388 225.891 929.753 222.904 931.972 220.344C934.191 217.613 937.007 215.907 940.42 215.224C943.833 214.371 947.759 215.053 952.196 217.272C960.047 221.368 968.239 224.355 976.772 226.232C985.476 227.939 993.668 228.792 1001.35 228.792C1012.27 228.792 1020.72 226.829 1026.69 222.904C1032.84 218.979 1035.91 213.944 1035.91 207.8C1035.91 202.851 1034.12 198.755 1030.53 195.512C1026.95 192.269 1020.97 189.709 1012.61 187.832L983.684 180.92C971.055 178.019 960.985 172.643 953.476 164.792C946.137 156.941 942.468 146.787 942.468 134.328C942.468 125.112 944.345 116.92 948.1 109.752C952.025 102.413 957.401 96.2693 964.228 91.32C971.225 86.2 979.161 82.36 988.036 79.8C997.081 77.0693 1006.55 75.704 1016.45 75.704C1024.99 75.704 1034.2 76.8133 1044.1 79.032C1054.17 81.2507 1063.47 84.92 1072 90.04C1075.42 92.088 1077.81 94.7333 1079.17 97.976C1080.54 101.048 1080.96 104.291 1080.45 107.704C1080.11 110.947 1078.83 113.763 1076.61 116.152C1074.56 118.541 1071.66 120.077 1067.91 120.76C1064.32 121.272 1059.97 120.333 1054.85 117.944C1049.22 115.043 1042.91 112.824 1035.91 111.288C1029.08 109.581 1022.43 108.728 1015.94 108.728C1009.11 108.728 1003.05 109.667 997.764 111.544C992.644 113.421 988.633 115.981 985.732 119.224C983.001 122.467 981.636 126.307 981.636 130.744C981.636 135.864 983.257 139.96 986.5 143.032C989.913 145.933 994.948 148.237 1001.6 149.944L1030.28 156.856C1044.95 160.269 1056.05 165.987 1063.56 174.008C1071.24 182.029 1075.08 191.672 1075.08 202.936C1075.08 212.835 1073.03 221.453 1068.93 228.792C1064.84 236.131 1059.12 242.275 1051.78 247.224C1044.61 252.003 1036.33 255.672 1026.95 258.232C1017.73 260.621 1008 261.816 997.764 261.816Z" fill="white"/>
</svg>
